<svg width="128" height="20" viewBox="0 0 128 20" fill="none" xmlns="http://www.w3.org/2000/svg">
<path d="M9.65448 5.59055V14.6457C9.65448 16.4042 9.12978 17.7428 8.05415 18.6352C6.97851 19.5538 5.58806 20 3.83031 20C3.22691 20 2.64974 19.9475 2.0988 19.8425C1.52163 19.7375 0.99693 19.5801 0.498465 19.3963L0 14.4882L0.36729 14.3307C1.31175 15.9318 2.07257 17.1129 2.6235 17.9265C3.17444 18.7402 3.75161 19.1601 4.35501 19.1601C4.80101 19.1601 5.1683 18.9239 5.45688 18.4514C5.74547 17.979 5.87664 17.2441 5.87664 16.2467V5.6168C5.87664 5.32808 5.87664 5.03937 5.87664 4.7769C5.85041 4.51443 5.85041 4.27821 5.82417 4.04199C5.79794 3.80577 5.7717 3.5958 5.74547 3.38583C5.71923 3.17585 5.66676 2.96588 5.64053 2.78215C5.61429 2.59843 5.56182 2.4147 5.50935 2.23097C5.43065 2.04724 5.37818 1.83727 5.29947 1.65354C5.22077 1.46982 5.14206 1.28609 5.06336 1.07612C4.98465 0.892388 4.87971 0.682415 4.77477 0.446195V0.3937H10.7301V0.446195C10.6252 0.682415 10.5202 0.892388 10.4415 1.07612C10.3628 1.28609 10.2841 1.49606 10.2317 1.67979C10.1529 1.86352 10.1005 2.04724 10.048 2.23097C9.9693 2.4147 9.91683 2.62467 9.8906 2.8084C9.83813 2.99213 9.81189 3.2021 9.78566 3.38583C9.75942 3.5958 9.73319 3.80577 9.70695 4.04199C9.68072 4.27821 9.68072 4.51444 9.68072 4.75066C9.65448 5.01312 9.65448 5.30184 9.65448 5.59055Z" fill="#1D1D1D"/>
<path d="M29.6837 0.708662L30.2609 5.40682L29.8673 5.53806C28.9753 3.83202 28.0833 2.62467 27.1651 1.91601C26.2469 1.20735 25.3024 0.839895 24.358 0.839895C23.4922 0.839895 22.8363 1.07612 22.3379 1.52231C21.8394 1.99475 21.5771 2.62467 21.5771 3.38583C21.5771 3.62205 21.6033 3.85827 21.6558 4.09449C21.7082 4.33071 21.7869 4.54068 21.8919 4.72441C21.9968 4.90814 22.128 5.09186 22.2592 5.27559C22.3904 5.45932 22.5478 5.6168 22.7314 5.77428C22.9151 5.93176 23.0987 6.08924 23.3086 6.22047C23.5185 6.37795 23.7546 6.50919 23.9907 6.64042C24.2268 6.77165 24.4629 6.90289 24.699 7.03412C24.9351 7.16535 25.1975 7.29659 25.4598 7.42782C25.7222 7.55905 25.9845 7.69029 26.2469 7.82152C26.5355 7.95276 26.8241 8.11024 27.1127 8.24147C27.4012 8.39895 27.6636 8.55643 27.9522 8.71391C28.2408 8.87139 28.5031 9.02887 28.7655 9.2126C29.0278 9.39633 29.2902 9.6063 29.5263 9.81627C29.7624 10.0262 29.9985 10.2362 30.2084 10.4724C30.392 10.7087 30.5757 10.9449 30.7593 11.2073C30.9167 11.4961 31.0479 11.7848 31.1791 12.0997C31.3103 12.4147 31.389 12.7559 31.4677 13.0971C31.5201 13.4646 31.5464 13.8583 31.5464 14.252C31.5464 14.6982 31.5201 15.1444 31.4414 15.5381C31.3627 15.9318 31.2316 16.2992 31.1004 16.6404C30.943 16.9816 30.7593 17.2703 30.5494 17.5591C30.3396 17.8478 30.1034 18.1102 29.8411 18.3465C29.5787 18.5827 29.2902 18.7664 29.0016 18.9501C28.6868 19.1339 28.3457 19.2913 28.0046 19.4226C27.6636 19.5538 27.2963 19.6588 26.9028 19.7375C26.5092 19.8163 26.1157 19.895 25.7222 19.9213C25.3287 19.9738 24.9089 20 24.4892 20C23.5185 20 22.5478 19.895 21.5771 19.685C20.6064 19.5013 19.7144 19.2388 18.9273 18.8976L18.3239 13.727L18.7174 13.5958C19.7931 15.5118 20.8687 16.9291 21.9181 17.8215C22.9675 18.7139 24.0956 19.1601 25.3024 19.1601C26.4043 19.1601 27.2438 18.8451 27.7948 18.2152C28.3457 17.6115 28.6343 16.8504 28.6343 15.9843C28.6343 15.6955 28.6081 15.4068 28.5556 15.1444C28.4769 14.8819 28.3982 14.6457 28.267 14.4094C28.1358 14.1732 28.0046 13.9633 27.8472 13.7533C27.6898 13.5696 27.5062 13.3858 27.3225 13.2021C27.1127 13.0184 26.9028 12.8609 26.6667 12.6772C26.4305 12.5197 26.1682 12.3622 25.9058 12.2047C25.6435 12.0735 25.3811 11.916 25.0926 11.7848C24.804 11.6535 24.5416 11.4961 24.253 11.3648C23.9907 11.2336 23.7283 11.0761 23.466 10.9449C23.2036 10.8136 22.9413 10.6824 22.6789 10.5512C22.4166 10.4199 22.1542 10.2625 21.9181 10.105C21.682 9.97375 21.4459 9.81627 21.2098 9.63255C20.9737 9.47507 20.7638 9.29134 20.5801 9.10761C20.3703 8.92388 20.1866 8.71391 20.003 8.50394C19.8193 8.29396 19.6619 8.05774 19.5307 7.82152C19.3996 7.5853 19.2684 7.34908 19.1634 7.06037C19.0585 6.7979 18.9798 6.50919 18.9273 6.22047C18.8749 5.93176 18.8486 5.59055 18.8486 5.24934C18.8486 4.8294 18.9011 4.4357 18.9798 4.06824C19.0585 3.70079 19.1634 3.35958 19.2946 3.04462C19.4258 2.75591 19.6094 2.46719 19.8193 2.20472C20.003 1.94226 20.2391 1.70604 20.4752 1.49606C20.7113 1.28609 20.9999 1.10236 21.2885 0.918636C21.5771 0.761154 21.8919 0.629921 22.2329 0.498687C22.5478 0.3937 22.8888 0.288713 23.2561 0.209974C23.5972 0.131233 23.9645 0.0787407 24.3317 0.0524928C24.699 0.0262464 25.0663 0 25.4598 0C26.2207 0 26.9552 0.0524928 27.6898 0.183728C28.3982 0.314961 29.0803 0.498687 29.6837 0.708662Z" fill="#1D1D1D"/>
<path d="M38.5275 19.9213C38.2652 19.9738 37.9766 20 37.688 20C36.5337 20 35.6417 19.5801 35.0383 18.7664C34.4349 17.9528 34.1201 16.8766 34.1201 15.5381V9.63255C34.1201 8.87139 34.0151 8.26772 33.8052 7.79528C33.5954 7.34908 33.333 6.95538 32.992 6.61417V6.53543H37.5306V15.2231C37.5306 15.9843 37.7143 16.5879 38.0553 17.0341C38.3964 17.4803 38.9211 17.7165 39.6294 17.7165C40.2328 17.7165 40.7051 17.5591 41.0986 17.2441C41.4921 16.9554 41.7807 16.5617 42.0168 16.0892V9.63255C42.0168 8.87139 41.9119 8.26772 41.7282 7.79528C41.5183 7.34908 41.2298 6.95538 40.8625 6.61417V6.53543H45.4536V14.4357C45.4536 14.7769 45.4536 15.0656 45.4798 15.3543C45.4798 15.643 45.4798 15.8793 45.5061 16.1155C45.5323 16.3517 45.5585 16.5354 45.5848 16.7192C45.611 16.9029 45.6635 17.0866 45.6897 17.2441C45.7159 17.4016 45.7684 17.5328 45.8471 17.664C45.8996 17.7953 45.9521 17.9265 46.0308 18.0315C46.0832 18.1365 46.1619 18.2415 46.2406 18.3202C46.3193 18.4252 46.398 18.5302 46.503 18.6089C46.5817 18.6877 46.6866 18.7927 46.7916 18.8714V18.9239L42.1742 19.9475V16.8504L42.148 16.8241C42.043 17.0079 41.9381 17.1654 41.8332 17.3491C41.702 17.5328 41.597 17.7165 41.4659 17.9003C41.3347 18.084 41.1773 18.2677 41.0199 18.4514C40.8362 18.6352 40.6788 18.7927 40.4952 18.9501C40.3115 19.1076 40.1279 19.2388 39.918 19.3701C39.7081 19.5013 39.4982 19.6063 39.2621 19.685C39.026 19.79 38.7899 19.8688 38.5275 19.9213Z" fill="#1D1D1D"/>
<path d="M48.8687 19.6063V19.5538C49.1048 18.8451 49.2622 18.1102 49.3671 17.3753C49.4721 16.6404 49.5245 15.6693 49.5245 14.4882V11.5223C49.5245 10.5512 49.4196 9.76378 49.1835 9.1601C48.9474 8.55643 48.6063 8.00525 48.1865 7.53281V7.48032L52.8301 6.0105V8.66142L52.9351 8.68766C53.3811 7.92651 53.9845 7.32283 54.6928 6.85039C55.4012 6.37795 56.2669 6.14173 57.2376 6.14173C58.2083 6.14173 58.9954 6.37795 59.5725 6.82415C60.1235 7.27034 60.4908 7.90026 60.6482 8.68766H60.7269C61.1991 7.92651 61.8025 7.32283 62.5109 6.85039C63.2192 6.37795 64.0587 6.14173 65.0294 6.14173C66.1838 6.14173 67.0757 6.45669 67.6792 7.11286C68.2826 7.76903 68.5711 8.66142 68.5711 9.76378V14.4619C68.5711 15.6693 68.6236 16.6404 68.7023 17.3753C68.781 18.1102 68.9647 18.8451 69.2008 19.5538V19.6063H64.5047V19.5538C64.7408 18.8451 64.9245 18.084 65.0294 17.3228C65.1081 16.5617 65.1606 15.6168 65.1606 14.4882V10.2625C65.1606 9.68504 65.0294 9.18635 64.7671 8.7664C64.4785 8.3727 64.0063 8.16273 63.3241 8.16273C62.8257 8.16273 62.3534 8.26772 61.9075 8.50394C61.4352 8.74016 61.0417 9.13386 60.7269 9.68504V14.4619C60.7269 15.6693 60.7793 16.6404 60.8843 17.3753C60.963 18.1102 61.1466 18.8451 61.409 19.5538V19.6063H56.6867V19.5538C56.9228 18.8451 57.1064 18.084 57.1852 17.3228C57.2639 16.5617 57.3163 15.6168 57.3163 14.4882V10.2625C57.3163 9.68504 57.1851 9.18635 56.949 8.7664C56.6867 8.3727 56.2145 8.16273 55.5323 8.16273C55.0339 8.16273 54.5616 8.26772 54.1157 8.50394C53.6434 8.74016 53.2499 9.13386 52.9351 9.68504V14.4619C52.9351 15.643 52.9875 16.5879 53.0925 17.3491C53.1712 18.1102 53.3548 18.8451 53.591 19.5538V19.6063H48.8687Z" fill="#1D1D1D"/>
<path d="M71.7218 19.6063V19.5538C71.9579 18.8451 72.1153 18.1102 72.2203 17.3753C72.3252 16.6404 72.3777 15.6693 72.3777 14.4882V11.5223C72.3777 10.5512 72.2727 9.76378 72.0366 9.1601C71.8005 8.55643 71.4595 8.00525 71.0397 7.53281V7.48032L75.6833 6.0105V8.66142L75.7882 8.68766C76.2342 7.92651 76.8376 7.32283 77.546 6.85039C78.2543 6.37795 79.1201 6.14173 80.0908 6.14173C81.0615 6.14173 81.8485 6.37795 82.4257 6.82415C82.9766 7.27034 83.3439 7.90026 83.5013 8.68766H83.58C84.0523 7.92651 84.6557 7.32283 85.364 6.85039C86.0724 6.37795 86.9119 6.14173 87.8826 6.14173C89.0369 6.14173 89.9289 6.45669 90.5323 7.11286C91.1357 7.76903 91.4243 8.66142 91.4243 9.76378V14.4619C91.4243 15.6693 91.4768 16.6404 91.5555 17.3753C91.6342 18.1102 91.8178 18.8451 92.0539 19.5538V19.6063H87.3579V19.5538C87.594 18.8451 87.7776 18.084 87.8826 17.3228C87.9613 16.5617 88.0137 15.6168 88.0137 14.4882V10.2625C88.0137 9.68504 87.8826 9.18635 87.6202 8.7664C87.3316 8.3727 86.8594 8.16273 86.1773 8.16273C85.6788 8.16273 85.2066 8.26772 84.7606 8.50394C84.2884 8.74016 83.8948 9.13386 83.58 9.68504V14.4619C83.58 15.6693 83.6325 16.6404 83.7374 17.3753C83.8161 18.1102 83.9998 18.8451 84.2621 19.5538V19.6063H79.5398V19.5538C79.776 18.8451 79.9596 18.084 80.0383 17.3228C80.117 16.5617 80.1695 15.6168 80.1695 14.4882V10.2625C80.1695 9.68504 80.0383 9.18635 79.8022 8.7664C79.5398 8.3727 79.0676 8.16273 78.3855 8.16273C77.887 8.16273 77.4148 8.26772 76.9688 8.50394C76.4966 8.74016 76.1031 9.13386 75.7882 9.68504V14.4619C75.7882 15.643 75.8407 16.5879 75.9456 17.3491C76.0243 18.1102 76.208 18.8451 76.4441 19.5538V19.6063H71.7218Z" fill="#1D1D1D"/>
<path d="M98.7726 16.0367C99.6383 16.9029 100.714 17.3228 102.026 17.3228C102.787 17.3228 103.469 17.1916 104.072 16.9291C104.649 16.6667 105.148 16.3255 105.541 15.8793L105.804 16.0892C105.41 17.1916 104.754 18.1102 103.836 18.8714C102.891 19.6325 101.685 20 100.242 20C99.7695 20 99.3235 19.9475 98.9037 19.8688C98.4577 19.79 98.0642 19.6588 97.6707 19.5013C97.2772 19.3438 96.9361 19.1339 96.6213 18.8976C96.2802 18.6614 95.9916 18.3989 95.7031 18.1102C95.4145 17.8215 95.1784 17.4803 94.9685 17.1129C94.7586 16.7717 94.575 16.378 94.4438 15.9843C94.3126 15.5906 94.2077 15.1444 94.129 14.6982C94.0503 14.252 93.9978 13.8058 93.9978 13.3071C93.9978 12.8346 94.024 12.3622 94.1027 11.916C94.1814 11.4698 94.2864 11.0499 94.4175 10.6562C94.5487 10.2625 94.7324 9.89501 94.916 9.52756C95.0997 9.18635 95.3358 8.84514 95.5719 8.53018C95.808 8.24147 96.0441 7.95275 96.3327 7.69029C96.6213 7.45407 96.9099 7.21785 97.2509 7.03412C97.5657 6.85039 97.9068 6.66667 98.2479 6.53543C98.5889 6.4042 98.93 6.32546 99.2973 6.24672C99.6646 6.16798 100.032 6.14173 100.399 6.14173C100.793 6.14173 101.16 6.16798 101.527 6.24672C101.868 6.32546 102.209 6.4042 102.524 6.53543C102.839 6.66667 103.128 6.82415 103.416 7.00787C103.679 7.1916 103.941 7.40157 104.177 7.61155C104.413 7.84777 104.623 8.08399 104.807 8.34646C104.99 8.60892 105.148 8.87139 105.279 9.1601C105.41 9.44882 105.515 9.76378 105.594 10.0525C105.672 10.3412 105.751 10.6562 105.777 10.9711C105.804 11.2861 105.83 11.6011 105.804 11.916H97.4608C97.487 13.8058 97.9068 15.1706 98.7726 16.0367ZM101.895 7.74278C101.527 7.1916 101.003 6.90289 100.347 6.90289C99.5071 6.90289 98.8513 7.32283 98.3528 8.13648C97.8543 8.95013 97.5658 9.94751 97.487 11.1286L102.419 11.0236V10.3937C102.419 9.18635 102.236 8.29396 101.895 7.74278Z" fill="#1D1D1D"/>
<path d="M107.924 19.6063V19.5538C108.16 18.8451 108.343 18.1102 108.448 17.3753C108.553 16.6404 108.606 15.6693 108.606 14.4882V11.5223C108.606 10.5512 108.475 9.76378 108.238 9.1601C108.002 8.55643 107.661 8.00525 107.242 7.53281V7.48032L111.885 6.0105V9.31759H111.938C112.069 9.1601 112.2 9.00262 112.331 8.8189C112.462 8.66142 112.593 8.50394 112.751 8.32021C112.882 8.13648 113.039 7.979 113.197 7.82152C113.328 7.66404 113.485 7.50656 113.669 7.34908C113.827 7.1916 113.984 7.03412 114.168 6.90289C114.351 6.77165 114.535 6.66667 114.719 6.56168C114.902 6.45669 115.112 6.37795 115.322 6.29921C115.506 6.22047 115.715 6.16798 115.952 6.14173C116.188 6.11549 116.398 6.11549 116.634 6.14173L116.319 10.105H116.109C115.768 9.84252 115.348 9.6063 114.823 9.42257C114.299 9.23884 113.879 9.13386 113.564 9.13386C113.328 9.13386 113.092 9.2126 112.803 9.39633C112.515 9.58005 112.252 9.84252 112.016 10.1837V14.4619C112.016 15.643 112.069 16.5879 112.147 17.3491C112.226 18.1102 112.41 18.8451 112.646 19.5538V19.6063H107.924Z" fill="#1D1D1D"/>
<path d="M126.846 6.64042L127.16 9.86877L126.872 9.94751C126.111 8.84514 125.403 8.05774 124.721 7.61155C124.039 7.16535 123.383 6.92913 122.727 6.92913C122.097 6.92913 121.599 7.08661 121.258 7.40157C120.89 7.71654 120.707 8.11024 120.707 8.60892C120.707 8.79265 120.733 8.97638 120.785 9.13386C120.838 9.29134 120.917 9.42257 121.021 9.55381C121.1 9.68504 121.231 9.81627 121.363 9.94751C121.494 10.0787 121.625 10.1837 121.782 10.2625C121.94 10.3675 122.123 10.4724 122.307 10.5512C122.491 10.6562 122.701 10.7612 122.91 10.8399C123.12 10.9186 123.33 11.0236 123.566 11.1024C123.776 11.2073 123.986 11.3123 124.222 11.3911C124.458 11.4961 124.694 11.601 124.931 11.706C125.167 11.811 125.376 11.916 125.613 12.0472C125.849 12.1785 126.059 12.336 126.268 12.4672C126.452 12.5984 126.636 12.7559 126.819 12.9396C127.003 13.1234 127.16 13.3071 127.318 13.4908C127.449 13.7008 127.58 13.937 127.685 14.1732C127.79 14.4094 127.869 14.6719 127.921 14.9606C127.974 15.2493 128 15.5381 128 15.8793C128 16.2467 127.974 16.5879 127.895 16.8766C127.816 17.1916 127.711 17.4803 127.58 17.7428C127.449 18.0052 127.265 18.2415 127.082 18.4514C126.898 18.6614 126.688 18.8451 126.452 19.0026C126.216 19.1864 125.954 19.3176 125.665 19.4488C125.376 19.5801 125.062 19.685 124.747 19.7638C124.432 19.8425 124.091 19.9213 123.75 19.9475C123.409 19.9738 123.042 20 122.674 20C121.913 20 121.179 19.9213 120.444 19.79C119.71 19.6588 119.054 19.4751 118.45 19.2388L118.136 15.5381L118.424 15.4331C119.185 16.6929 119.946 17.6378 120.707 18.2677C121.467 18.8976 122.281 19.2126 123.173 19.2126C123.986 19.2126 124.537 19.0289 124.878 18.6352C125.193 18.2415 125.35 17.8215 125.35 17.3228C125.35 16.6142 125.062 16.0892 124.511 15.6955C123.934 15.3018 123.251 14.9344 122.438 14.5932C122.228 14.5144 122.018 14.4094 121.809 14.3045C121.572 14.2257 121.363 14.1207 121.153 14.0157C120.943 13.9108 120.733 13.8058 120.549 13.6745C120.339 13.5433 120.156 13.4121 119.972 13.2808C119.788 13.1496 119.605 12.9921 119.447 12.8084C119.264 12.6509 119.133 12.4672 119.001 12.2835C118.87 12.0997 118.739 11.8898 118.66 11.6535C118.555 11.4173 118.477 11.1811 118.424 10.9186C118.372 10.6562 118.346 10.3675 118.346 10.0525C118.346 9.68504 118.372 9.34383 118.45 9.05512C118.529 8.7664 118.634 8.47769 118.765 8.21522C118.896 7.979 119.08 7.74278 119.264 7.53281C119.447 7.34908 119.684 7.16535 119.92 7.00787C120.156 6.85039 120.392 6.71916 120.68 6.61417C120.943 6.50919 121.231 6.43045 121.546 6.35171C121.835 6.27297 122.15 6.22047 122.491 6.19423C122.832 6.16798 123.147 6.14173 123.488 6.14173C124.143 6.14173 124.773 6.19423 125.376 6.29921C125.98 6.4042 126.452 6.50919 126.846 6.64042Z" fill="#1D1D1D"/>
</svg>
